# xmcd
#
# Track frame offsets:
# 150
# 19090
# 44401
# 61372
# 82241
# 99641
# 113691
# 120038
# 145381
# 153116
# 158033
# 170400
# 189472
# 205072
# 213876
#
# Disc length: 3165 seconds
#
# Revision: 0
# Processed by: cddbd v1.4PL0 Copyright (c) Steve Scherf et al.
# Submitted via: Audion 3.0.2 (http://www.panic.com/audion/)
#
DISCID=c10c5b0f
DTITLE=Dave Longstreth - The Graceful-Fallen Mango
DYEAR=1900
DGENRE=
TTITLE0=Spring is Here
TTITLE1=Follow Me Not If You Still Care
TTITLE2=Easily Resigned
TTITLE3=I Don't Know
TTITLE4=Lay Down Restless Bones
TTITLE5=Constellation That's Mine
TTITLE6=Time For Bed
TTITLE7=She Turns to Ash
TTITLE8=What If I
TTITLE9=The Graceful-Fallen Mango
TTITLE10=Maggie and Me
TTITLE11=Everything Will Happen
TTITLE12=We Are Striving
TTITLE13=Yield, Be Held (Aloft)
TTITLE14=At the End of the Day
EXTD=
EXTT0=
EXTT1=
EXTT2=
EXTT3=
EXTT4=
EXTT5=
EXTT6=
EXTT7=
EXTT8=
EXTT9=
EXTT10=
EXTT11=
EXTT12=
EXTT13=
EXTT14=
PLAYORDER=
